solid OpenSCAD_Model
  facet normal 0 0 -1
    outer loop
      vertex 4.5 3.5 0
      vertex 4.5 4.5 0
      vertex 5 3.5 0
    endloop
  endfacet
  facet normal 0 0 -1
    outer loop
      vertex 5 3.5 0
      vertex 6 0 0
      vertex 5 1 0
    endloop
  endfacet
  facet normal 0 0 -1
    outer loop
      vertex 4.5 4.5 0
      vertex 6 6 0
      vertex 5 3.5 0
    endloop
  endfacet
  facet normal 0 0 -1
    outer loop
      vertex 5 3.5 0
      vertex 6 6 0
      vertex 6 0 0
    endloop
  endfacet
  facet normal 0 -0 -1
    outer loop
      vertex -5 1 0
      vertex 5 1 0
      vertex -6 0 0
    endloop
  endfacet
  facet normal 0 0 -1
    outer loop
      vertex -6 6 0
      vertex -5 3.5 0
      vertex -6 0 0
    endloop
  endfacet
  facet normal 0 0 -1
    outer loop
      vertex -6 6 0
      vertex -4.5 4.5 0
      vertex -5 3.5 0
    endloop
  endfacet
  facet normal 0 -0 -1
    outer loop
      vertex -4.5 4.5 0
      vertex -4.5 3.5 0
      vertex -5 3.5 0
    endloop
  endfacet
  facet normal -0 0 -1
    outer loop
      vertex -5 1 0
      vertex -6 0 0
      vertex -5 3.5 0
    endloop
  endfacet
  facet normal 0 0 -1
    outer loop
      vertex -6 0 0
      vertex 5 1 0
      vertex 6 0 0
    endloop
  endfacet
  facet normal 0 0 1
    outer loop
      vertex 5 3.5 3.5
      vertex 4.5 4.5 3.5
      vertex 4.5 3.5 3.5
    endloop
  endfacet
  facet normal -0 0 1
    outer loop
      vertex 5 1 3.5
      vertex 6 0 3.5
      vertex 5 3.5 3.5
    endloop
  endfacet
  facet normal 0 -0 1
    outer loop
      vertex 5 3.5 3.5
      vertex 6 6 3.5
      vertex 4.5 4.5 3.5
    endloop
  endfacet
  facet normal 0 -0 1
    outer loop
      vertex 6 0 3.5
      vertex 6 6 3.5
      vertex 5 3.5 3.5
    endloop
  endfacet
  facet normal 0 0 1
    outer loop
      vertex -6 0 3.5
      vertex 5 1 3.5
      vertex -5 1 3.5
    endloop
  endfacet
  facet normal 0 0 1
    outer loop
      vertex -6 0 3.5
      vertex -5 3.5 3.5
      vertex -6 6 3.5
    endloop
  endfacet
  facet normal 0 -0 1
    outer loop
      vertex -5 3.5 3.5
      vertex -4.5 4.5 3.5
      vertex -6 6 3.5
    endloop
  endfacet
  facet normal 0 0 1
    outer loop
      vertex -5 3.5 3.5
      vertex -4.5 3.5 3.5
      vertex -4.5 4.5 3.5
    endloop
  endfacet
  facet normal 0 0 1
    outer loop
      vertex -5 3.5 3.5
      vertex -6 0 3.5
      vertex -5 1 3.5
    endloop
  endfacet
  facet normal 0 0 1
    outer loop
      vertex 6 0 3.5
      vertex 5 1 3.5
      vertex -6 0 3.5
    endloop
  endfacet
  facet normal -1 0 0
    outer loop
      vertex 4.5 3.5 0
      vertex 4.5 4.5 3.5
      vertex 4.5 4.5 0
    endloop
  endfacet
  facet normal -1 0 0
    outer loop
      vertex 4.5 3.5 0
      vertex 4.5 3.5 3.5
      vertex 4.5 4.5 3.5
    endloop
  endfacet
  facet normal 0 -1 0
    outer loop
      vertex 5 3.5 0
      vertex 4.5 3.5 3.5
      vertex 4.5 3.5 0
    endloop
  endfacet
  facet normal 0 -1 0
    outer loop
      vertex 5 3.5 0
      vertex 5 3.5 3.5
      vertex 4.5 3.5 3.5
    endloop
  endfacet
  facet normal -1 0 0
    outer loop
      vertex 5 1 0
      vertex 5 3.5 3.5
      vertex 5 3.5 0
    endloop
  endfacet
  facet normal -1 0 0
    outer loop
      vertex 5 1 0
      vertex 5 1 3.5
      vertex 5 3.5 3.5
    endloop
  endfacet
  facet normal 0 1 0
    outer loop
      vertex -5 1 0
      vertex 5 1 3.5
      vertex 5 1 0
    endloop
  endfacet
  facet normal 0 1 0
    outer loop
      vertex -5 1 0
      vertex -5 1 3.5
      vertex 5 1 3.5
    endloop
  endfacet
  facet normal 1 0 0
    outer loop
      vertex -5 3.5 0
      vertex -5 1 3.5
      vertex -5 1 0
    endloop
  endfacet
  facet normal 1 0 -0
    outer loop
      vertex -5 3.5 0
      vertex -5 3.5 3.5
      vertex -5 1 3.5
    endloop
  endfacet
  facet normal 0 -1 0
    outer loop
      vertex -4.5 3.5 0
      vertex -5 3.5 3.5
      vertex -5 3.5 0
    endloop
  endfacet
  facet normal 0 -1 0
    outer loop
      vertex -4.5 3.5 0
      vertex -4.5 3.5 3.5
      vertex -5 3.5 3.5
    endloop
  endfacet
  facet normal 1 0 0
    outer loop
      vertex -4.5 4.5 0
      vertex -4.5 3.5 3.5
      vertex -4.5 3.5 0
    endloop
  endfacet
  facet normal 1 0 -0
    outer loop
      vertex -4.5 4.5 0
      vertex -4.5 4.5 3.5
      vertex -4.5 3.5 3.5
    endloop
  endfacet
  facet normal 0.707107 0.707107 0
    outer loop
      vertex -6 6 0
      vertex -4.5 4.5 3.5
      vertex -4.5 4.5 0
    endloop
  endfacet
  facet normal 0.707107 0.707107 -0
    outer loop
      vertex -6 6 0
      vertex -6 6 3.5
      vertex -4.5 4.5 3.5
    endloop
  endfacet
  facet normal -1 0 0
    outer loop
      vertex -6 0 0
      vertex -6 6 3.5
      vertex -6 6 0
    endloop
  endfacet
  facet normal -1 0 0
    outer loop
      vertex -6 0 0
      vertex -6 0 3.5
      vertex -6 6 3.5
    endloop
  endfacet
  facet normal 0 -1 0
    outer loop
      vertex 6 0 0
      vertex -6 0 3.5
      vertex -6 0 0
    endloop
  endfacet
  facet normal 0 -1 0
    outer loop
      vertex 6 0 0
      vertex 6 0 3.5
      vertex -6 0 3.5
    endloop
  endfacet
  facet normal 1 0 0
    outer loop
      vertex 6 6 0
      vertex 6 0 3.5
      vertex 6 0 0
    endloop
  endfacet
  facet normal 1 0 -0
    outer loop
      vertex 6 6 0
      vertex 6 6 3.5
      vertex 6 0 3.5
    endloop
  endfacet
  facet normal -0.707107 0.707107 0
    outer loop
      vertex 4.5 4.5 0
      vertex 6 6 3.5
      vertex 6 6 0
    endloop
  endfacet
  facet normal -0.707107 0.707107 0
    outer loop
      vertex 4.5 4.5 0
      vertex 4.5 4.5 3.5
      vertex 6 6 3.5
    endloop
  endfacet
endsolid OpenSCAD_Model
